<?xml version="1.0"?>
<svg xmlns="http://www.w3.org/2000/svg" height="512px" viewBox="0 0 512 512" width="512px"><g><path d="m45 120h-30c-8.285156 0-15 6.714844-15 15v160c0 8.285156 6.714844 15 15 15h30c8.285156 0 15-6.714844 15-15v-160c0-8.285156-6.714844-15-15-15zm0 0" data-original="#000000" class="active-path" data-old_color="#000000" fill="#646464"/><path d="m377 160h-35.285156c-2.3125-20.824219-18.890625-37.398438-39.714844-39.714844v-30.285156h-110v30.285156c-20.824219 2.316406-37.402344 18.890625-39.714844 39.714844h-62.285156v110h62.285156c2.496094 22.46875 21.59375 40 44.714844 40h100c23.121094 0 42.21875-17.53125 44.714844-40h35.285156c13.785156 0 25 11.214844 25 25v35c0 8.285156 6.714844 15 15 15h80c8.285156 0 15-6.714844 15-15v-35c0-74.4375-60.5625-135-135-135zm0 0" data-original="#000000" class="active-path" data-old_color="#000000" fill="#646464"/><path d="m469 381.527344c-2.832031-3.777344-7.277344-6-12-6s-9.167969 2.222656-12 6l-31.941406 42.589844c-12.5625 16.75-14.550782 38.789062-5.1875 57.519531 9.363281 18.730469 28.191406 30.363281 49.128906 30.363281s39.765625-11.636719 49.128906-30.363281c9.363282-18.726563 7.378906-40.769531-5.1875-57.519531zm0 0" data-original="#000000" class="active-path" data-old_color="#000000" fill="#646464"/><path d="m162 60h170c16.570312 0 30-13.429688 30-30s-13.429688-30-30-30h-170c-16.570312 0-30 13.429688-30 30s13.429688 30 30 30zm0 0" data-original="#000000" class="active-path" data-old_color="#000000" fill="#646464"/></g> </svg>
